<svg xmlns="http://www.w3.org/2000/svg" version="1.1" xmlns:xlink="http://www.w3.org/1999/xlink" xmlns:svgjs="http://svgjs.dev/svgjs" width="2000" height="1500" viewBox="0 0 2000 1500"><rect width="2000" height="1500" fill="#ffffff"></rect><g transform="matrix(0.75,0,0,0.75,249.0909091165487,496.57510782703196)"><svg viewBox="0 0 396 134" data-background-color="#ffffff" preserveAspectRatio="xMidYMid meet" height="676" width="2000" xmlns="http://www.w3.org/2000/svg" xmlns:xlink="http://www.w3.org/1999/xlink"><g id="tight-bounds" transform="matrix(1,0,0,1,0.24000000676886657,-0.019850983870384198)"><svg viewBox="0 0 395.52 134.03970050557356" height="134.03970050557356" width="395.52"><g><svg viewBox="0 0 395.52 134.03970050557356" height="134.03970050557356" width="395.52"><g transform="matrix(1,0,0,1,0,98.13722153361095)"><svg viewBox="0 0 395.52 35.902478971962616" height="35.902478971962616" width="395.52"><g id="textblocktransform"><svg viewBox="0 0 395.52 35.902478971962616" height="35.902478971962616" width="395.52" id="textblock"><g><svg viewBox="0 0 395.52 35.902478971962616" height="35.902478971962616" width="395.52"><g transform="matrix(1,0,0,1,0,0)"><svg width="395.52" viewBox="1.6100000143051147 -37.650001525878906 417.94000244140625 37.941139221191406" height="35.902478971962616" data-palette-color="#4d7e3e"><path d="M36.89 0L29.59 0 29.59-6.35Q28.08-3.69 26.64-2.44 25.2-1.2 23.38-0.44 21.56 0.32 18.51 0.29L18.51 0.29Q16.99 0.27 15.48-0.06 13.96-0.39 12.55-0.99 11.13-1.59 9.78-2.43 8.42-3.27 7.32-4.37L7.32-4.37Q4.61-7.1 3.11-10.71 1.61-14.31 1.61-18.55L1.61-18.55Q1.61-21.17 2.25-23.61 2.88-26.05 4.03-28.17 5.18-30.3 6.8-32.04 8.42-33.79 10.41-35.03 12.4-36.28 14.7-36.96 16.99-37.65 19.51-37.65L19.51-37.65Q22.39-37.65 24.51-36.88 26.64-36.11 29.08-34.01L29.08-34.01 34.55-34.01 34.55-25.76 27-25.76Q25.88-27.49 24.89-28.27 23.9-29.05 22.74-29.57 21.58-30.08 19.51-30.08L19.51-30.08Q17.46-30.08 15.7-29.15 13.94-28.22 12.66-26.65 11.38-25.07 10.64-22.94 9.91-20.8 9.91-18.55L9.91-18.55Q9.91-16.33 10.57-14.33 11.23-12.33 12.57-10.73 13.92-9.13 15.7-8.28 17.48-7.42 19.51-7.42L19.51-7.42Q22.09-7.42 24.02-8.94 25.95-10.45 26.81-13.06L26.81-13.06 19.75-13.06 19.75-19.75 36.89-19.75 36.89 0ZM42.7-30.3L42.7-37.01 62.28-37.01Q65.13-37.01 67.38-36.16 69.63-35.3 71.16-33.87 72.7-32.45 73.52-30.55 74.34-28.66 74.34-26.61L74.34-26.61Q74.34-24.73 73.94-23.32 73.53-21.9 72.76-20.8 71.99-19.7 70.87-18.86 69.75-18.02 68.31-17.33L68.31-17.33Q69.55-16.7 70.51-15.39 71.46-14.09 71.95-12.01L71.95-12.01 73.19-7.2 76.24-7.2 76.29 0 65.55 0 64.08-8.79Q63.86-10.35 63.41-11.49 62.96-12.62 62.2-13.34 61.45-14.06 60.36-14.4 59.27-14.75 57.79-14.75L57.79-14.75 54.64-14.75 54.64-6.69 58.03-6.69 58.03 0 42.7 0 42.7-6.69 46.53-6.69 46.53-30.3 42.7-30.3ZM59.49-30.3L54.64-30.3 54.64-21.34 59.49-21.34Q60.89-21.34 62-21.59 63.11-21.85 63.9-22.4 64.69-22.95 65.12-23.78 65.55-24.61 65.55-25.76L65.55-25.76Q65.55-27.91 64.01-29.1 62.47-30.3 59.49-30.3L59.49-30.3ZM80.05-29.64L80.05-37.01 109.49-37.01 109.49-24.39 101.53-24.39 101.53-29.64 92.04-29.64 92.04-22.34 99.38-22.34 99.38-15.26 92.04-15.26 92.04-6.69 101.53-6.69 101.53-13.26 109.49-13.26 109.49 0 80.05 0 80.05-6.69 83.93-6.69 83.93-29.64 80.05-29.64ZM113.74-29.64L113.74-37.01 143.18-37.01 143.18-24.39 135.22-24.39 135.22-29.64 125.72-29.64 125.72-22.34 133.07-22.34 133.07-15.26 125.72-15.26 125.72-6.69 135.22-6.69 135.22-13.26 143.18-13.26 143.18 0 113.74 0 113.74-6.69 117.62-6.69 117.62-29.64 113.74-29.64ZM170.82-30.3L170.82-37.01 184.88-37.01 184.88-30.3 181.87-30.3 181.87 0 173.77 0 158.36-23.93 158.36-6.69 161.46-6.69 161.46 0 147.43 0 147.43-6.69 150.48-6.69 150.48-30.3 147.48-30.3 147.48-37.01 158.66-37.01 173.96-12.77 173.96-30.3 170.82-30.3ZM233.02 0L225.72 0 225.72-6.35Q224.2-3.69 222.76-2.44 221.32-1.2 219.5-0.44 217.69 0.32 214.63 0.29L214.63 0.29Q213.12 0.27 211.61-0.06 210.09-0.39 208.68-0.99 207.26-1.59 205.91-2.43 204.55-3.27 203.45-4.37L203.45-4.37Q200.74-7.1 199.24-10.71 197.74-14.31 197.74-18.55L197.74-18.55Q197.74-21.17 198.37-23.61 199.01-26.05 200.16-28.17 201.3-30.3 202.93-32.04 204.55-33.79 206.54-35.03 208.53-36.28 210.82-36.96 213.12-37.65 215.63-37.65L215.63-37.65Q218.52-37.65 220.64-36.88 222.76-36.11 225.2-34.01L225.2-34.01 230.67-34.01 230.67-25.76 223.13-25.76Q222.01-27.49 221.02-28.27 220.03-29.05 218.87-29.57 217.71-30.08 215.63-30.08L215.63-30.08Q213.58-30.08 211.83-29.15 210.07-28.22 208.79-26.65 207.5-25.07 206.77-22.94 206.04-20.8 206.04-18.55L206.04-18.55Q206.04-16.33 206.7-14.33 207.36-12.33 208.7-10.73 210.04-9.13 211.83-8.28 213.61-7.42 215.63-7.42L215.63-7.42Q218.22-7.42 220.15-8.94 222.08-10.45 222.93-13.06L222.93-13.06 215.88-13.06 215.88-19.75 233.02-19.75 233.02 0ZM257.87 0L257.87-6.69 261.55-6.69 259.89-12.01 248.52-12.01 246.86-6.69 250.76-6.69 250.76 0 236.73 0 236.73-6.69 239.48-6.69 249.57-37.01 259.36-37.01 269.22-6.69 271.91-6.69 271.91 0 257.87 0ZM254.16-30.3L250.45-18.26 257.92-18.26 254.16-30.3ZM275.22-30.3L275.22-37.01 294.8-37.01Q297.66-37.01 299.91-36.16 302.15-35.3 303.69-33.87 305.23-32.45 306.05-30.55 306.86-28.66 306.86-26.61L306.86-26.61Q306.86-24.73 306.46-23.32 306.06-21.9 305.29-20.8 304.52-19.7 303.4-18.86 302.27-18.02 300.83-17.33L300.83-17.33Q302.08-16.7 303.03-15.39 303.98-14.09 304.47-12.01L304.47-12.01 305.72-7.2 308.77-7.2 308.82 0 298.08 0 296.61-8.79Q296.39-10.35 295.94-11.49 295.49-12.62 294.73-13.34 293.97-14.06 292.89-14.4 291.8-14.75 290.31-14.75L290.31-14.75 287.16-14.75 287.16-6.69 290.56-6.69 290.56 0 275.22 0 275.22-6.69 279.06-6.69 279.06-30.3 275.22-30.3ZM292.02-30.3L287.16-30.3 287.16-21.34 292.02-21.34Q293.41-21.34 294.52-21.59 295.63-21.85 296.43-22.4 297.22-22.95 297.65-23.78 298.08-24.61 298.08-25.76L298.08-25.76Q298.08-27.91 296.54-29.1 295-30.3 292.02-30.3L292.02-30.3ZM311.82-30.3L311.82-37.01 326.03-37.01Q328.57-37.01 330.9-36.35 333.23-35.69 335.24-34.5 337.26-33.3 338.91-31.63 340.55-29.96 341.73-27.91 342.9-25.85 343.53-23.49 344.17-21.12 344.17-18.55L344.17-18.55Q344.17-15.99 343.53-13.62 342.9-11.25 341.73-9.19 340.55-7.13 338.91-5.43 337.26-3.74 335.24-2.53 333.23-1.32 330.9-0.66 328.57 0 326.03 0L326.03 0 311.82 0 311.82-6.69 314.77-6.69 314.77-30.3 311.82-30.3ZM325.98-30.3L322.88-30.3 322.88-6.69 325.98-6.69Q327.96-6.69 329.71-7.62 331.47-8.54 332.77-10.14 334.06-11.74 334.82-13.9 335.57-16.06 335.57-18.55L335.57-18.55Q335.57-21.02 334.82-23.17 334.06-25.32 332.77-26.9 331.47-28.49 329.71-29.39 327.96-30.3 325.98-30.3L325.98-30.3ZM348.41-29.64L348.41-37.01 377.86-37.01 377.86-24.39 369.9-24.39 369.9-29.64 360.4-29.64 360.4-22.34 367.75-22.34 367.75-15.26 360.4-15.26 360.4-6.69 369.9-6.69 369.9-13.26 377.86-13.26 377.86 0 348.41 0 348.41-6.69 352.29-6.69 352.29-29.64 348.41-29.64ZM405.49-30.3L405.49-37.01 419.55-37.01 419.55-30.3 416.55-30.3 416.55 0 408.44 0 393.04-23.93 393.04-6.69 396.14-6.69 396.14 0 382.1 0 382.1-6.69 385.15-6.69 385.15-30.3 382.15-30.3 382.15-37.01 393.33-37.01 408.64-12.77 408.64-30.3 405.49-30.3Z" opacity="1" transform="matrix(1,0,0,1,0,0)" fill="#4d7e3e" class="undefined-text-0" data-fill-palette-color="primary" id="text-0"></path></svg></g></svg></g></svg></g></svg></g><g transform="matrix(1,0,0,1,157.16710285897955,0)"><svg viewBox="0 0 81.18579428204086 81.18579428204086" height="81.18579428204086" width="81.18579428204086"><g><svg></svg></g><g id="icon-0"><svg viewBox="0 0 81.18579428204086 81.18579428204086" height="81.18579428204086" width="81.18579428204086"><g><path d="M0 40.593c0-22.419 18.174-40.593 40.593-40.593 22.419 0 40.593 18.174 40.593 40.593 0 22.419-18.174 40.593-40.593 40.593-22.419 0-40.593-18.174-40.593-40.593zM40.593 77.948c20.631 0 37.355-16.724 37.355-37.355 0-20.631-16.724-37.355-37.355-37.355-20.631 0-37.355 16.724-37.355 37.355 0 20.631 16.724 37.355 37.355 37.355z" data-fill-palette-color="accent" fill="#4d7e3e" stroke="transparent"></path><ellipse rx="40.186968169610225" ry="40.186968169610225" cx="40.59289714102043" cy="40.59289714102043" fill="#4d7e3e" stroke="transparent" stroke-width="0" fill-opacity="1" data-fill-palette-color="accent"></ellipse></g><g transform="matrix(1,0,0,1,20.75591108682595,22.820753523761127)"><svg viewBox="0 0 39.67397210838896 35.544287234518606" height="35.544287234518606" width="39.67397210838896"><g><svg xmlns="http://www.w3.org/2000/svg" xmlns:xlink="http://www.w3.org/1999/xlink" version="1.1" x="0" y="0" viewBox="0.9850000143051147 6.086999893188477 98.02999877929688 87.82600402832031" enable-background="new 0 0 100 100" xml:space="preserve" height="35.544287234518606" width="39.67397210838896" class="icon-s-0" data-fill-palette-color="quaternary" id="s-0"><path d="M50 6.087C22.93 6.087 0.985 25.748 0.985 50 0.985 74.253 22.93 93.913 50 93.913c27.07 0 49.015-19.66 49.015-43.913C99.015 25.748 77.07 6.087 50 6.087zM74.833 69.08c-32.125 19.166-60.851-0.667-66.379-6.454 14.492 11.331 37.288 14.851 56.379 6.787C76.146 64.037 82.172 56.755 85 47.079c2.829-10.751-0.536-20.965-11.143-27.954-9.899-6.451-22.628-8.601-35.355-5.376-9.899 3.226-17.678 9.139-20.506 17.74-3.535 9.139 2.829 18.277 13.435 23.115 10.606 3.763 25.456 2.15 31.113-6.45 3.535-5.914 2.121-13.44-5.657-17.203-3.535-1.613-8.303-1.955-10.86 0.174-3.521 2.932 1.89 0.361 5.874 2.206 2.517 1.165 5.6 3.165 4.986 8.372-0.772 6.559-11.313 9.677-18.385 7.526-7.778-2.688-11.314-8.601-10.606-14.515 1.414-6.451 7.778-11.289 15.557-12.902 13.435-2.688 25.455 4.301 29.698 13.978 3.535 9.138-2.121 17.739-12.021 23.115-8.484 4.301-18.385 5.376-27.577 2.688-13.435-3.763-22.627-12.901-23.334-24.19C9.511 22.888 22.238 12.137 39.916 8.374c19.799-3.225 39.598 4.301 48.083 18.277C95.777 41.166 91.609 59.071 74.833 69.08z" fill="#ffffff" data-fill-palette-color="quaternary"></path></svg></g></svg></g></svg></g></svg></g><g></g></svg></g><defs></defs></svg><rect width="395.52" height="134.03970050557356" fill="none" stroke="none" visibility="hidden"></rect></g></svg></g></svg>